<?xml version="1.0"?>
<svg xmlns="http://www.w3.org/2000/svg" xmlns:xlink="http://www.w3.org/1999/xlink" xmlns:svgjs="http://svgjs.com/svgjs" version="1.1" width="512" height="512" x="0" y="0" viewBox="0 0 284.929 284.929" style="enable-background:new 0 0 512 512" xml:space="preserve" class=""><g>
<g xmlns="http://www.w3.org/2000/svg">
	<g>
		<path d="M17.128,167.872c1.903,1.902,4.093,2.854,6.567,2.854c2.474,0,4.664-0.952,6.567-2.854L142.466,55.666l112.208,112.206    c1.902,1.902,4.093,2.854,6.563,2.854c2.478,0,4.668-0.952,6.57-2.854l14.274-14.277c1.902-1.902,2.847-4.093,2.847-6.563    c0-2.475-0.951-4.665-2.847-6.567L149.028,7.419c-1.901-1.906-4.088-2.853-6.562-2.853s-4.665,0.95-6.567,2.853L2.856,140.464    C0.95,142.367,0,144.554,0,147.034c0,2.468,0.953,4.658,2.856,6.561L17.128,167.872z" fill="#0b2239" data-original="#000000" style="" class=""/>
		<path d="M149.028,117.055c-1.901-1.906-4.088-2.856-6.562-2.856s-4.665,0.953-6.567,2.856L2.856,250.1    C0.95,252.003,0,254.192,0,256.67c0,2.472,0.953,4.661,2.856,6.564l14.272,14.276c1.903,1.903,4.093,2.848,6.567,2.848    c2.474,0,4.664-0.951,6.567-2.848l112.204-112.209l112.208,112.209c1.902,1.903,4.093,2.852,6.563,2.852    c2.478,0,4.668-0.948,6.57-2.852l14.274-14.276c1.902-1.903,2.847-4.093,2.847-6.564c0-2.478-0.951-4.667-2.847-6.57    L149.028,117.055z" fill="#0b2239" data-original="#000000" style="" class=""/>
	</g>
</g>
<g xmlns="http://www.w3.org/2000/svg">
</g>
<g xmlns="http://www.w3.org/2000/svg">
</g>
<g xmlns="http://www.w3.org/2000/svg">
</g>
<g xmlns="http://www.w3.org/2000/svg">
</g>
<g xmlns="http://www.w3.org/2000/svg">
</g>
<g xmlns="http://www.w3.org/2000/svg">
</g>
<g xmlns="http://www.w3.org/2000/svg">
</g>
<g xmlns="http://www.w3.org/2000/svg">
</g>
<g xmlns="http://www.w3.org/2000/svg">
</g>
<g xmlns="http://www.w3.org/2000/svg">
</g>
<g xmlns="http://www.w3.org/2000/svg">
</g>
<g xmlns="http://www.w3.org/2000/svg">
</g>
<g xmlns="http://www.w3.org/2000/svg">
</g>
<g xmlns="http://www.w3.org/2000/svg">
</g>
<g xmlns="http://www.w3.org/2000/svg">
</g>
</g></svg>
